<?xml version="1.0" encoding="UTF-8"?>
<svg id="Layer_1" data-name="Layer 1" xmlns="http://www.w3.org/2000/svg" viewBox="0 0 15.29 11.71">
 
  <path class="cls-1" d="M3.18,3.18c.49,0,.89.4.89.89v6.25c0,.49-.4.89-.89.89h-1.79c-.49,0-.89-.4-.89-.89v-6.25c0-.49.4-.89.89-.89h1.79ZM8.54.5c.49,0,.89.4.89.89v8.93c0,.49-.4.89-.89.89h-1.79c-.49,0-.89-.4-.89-.89V1.39c0-.49.4-.89.89-.89h1.79ZM13.89,4.96c.49,0,.89.4.89.89v4.46c0,.49-.4.89-.89.89h-1.79c-.49,0-.89-.4-.89-.89v-4.46c0-.49.4-.89.89-.89h1.79Z"/>
</svg>